<svg xmlns="http://www.w3.org/2000/svg" width="1920" height="930" style="cursor: move;"><g transform="translate(30.769351852246018,-22.179421755101544) scale(0.963326303580462)"><path class="link" marker-end="" d="M834,135, 974,424" style="stroke-width: 0.54; stroke-opacity: 1; stroke: rgb(80, 80, 80);"></path><path class="link" marker-end="" d="M834,135, 974,458" style="stroke-width: 0.54; stroke-opacity: 1; stroke: rgb(80, 80, 80);"></path><path class="link" marker-end="" d="M834,135, 974,492" style="stroke-width: 0.54; stroke-opacity: 1; stroke: rgb(80, 80, 80);"></path><path class="link" marker-end="" d="M834,169, 974,424" style="stroke-width: 0.54; stroke-opacity: 1; stroke: rgb(80, 80, 80);"></path><path class="link" marker-end="" d="M834,169, 974,458" style="stroke-width: 0.54; stroke-opacity: 1; stroke: rgb(80, 80, 80);"></path><path class="link" marker-end="" d="M834,169, 974,492" style="stroke-width: 0.54; stroke-opacity: 1; stroke: rgb(80, 80, 80);"></path><path class="link" marker-end="" d="M834,203, 974,424" style="stroke-width: 0.54; stroke-opacity: 1; stroke: rgb(80, 80, 80);"></path><path class="link" marker-end="" d="M834,203, 974,458" style="stroke-width: 0.54; stroke-opacity: 1; stroke: rgb(80, 80, 80);"></path><path class="link" marker-end="" d="M834,203, 974,492" style="stroke-width: 0.54; stroke-opacity: 1; stroke: rgb(80, 80, 80);"></path><path class="link" marker-end="" d="M834,237, 974,424" style="stroke-width: 0.54; stroke-opacity: 1; stroke: rgb(80, 80, 80);"></path><path class="link" marker-end="" d="M834,237, 974,458" style="stroke-width: 0.54; stroke-opacity: 1; stroke: rgb(80, 80, 80);"></path><path class="link" marker-end="" d="M834,237, 974,492" style="stroke-width: 0.54; stroke-opacity: 1; stroke: rgb(80, 80, 80);"></path><path class="link" marker-end="" d="M834,271, 974,424" style="stroke-width: 0.54; stroke-opacity: 1; stroke: rgb(80, 80, 80);"></path><path class="link" marker-end="" d="M834,271, 974,458" style="stroke-width: 0.54; stroke-opacity: 1; stroke: rgb(80, 80, 80);"></path><path class="link" marker-end="" d="M834,271, 974,492" style="stroke-width: 0.54; stroke-opacity: 1; stroke: rgb(80, 80, 80);"></path><path class="link" marker-end="" d="M834,305, 974,424" style="stroke-width: 0.54; stroke-opacity: 1; stroke: rgb(80, 80, 80);"></path><path class="link" marker-end="" d="M834,305, 974,458" style="stroke-width: 0.54; stroke-opacity: 1; stroke: rgb(80, 80, 80);"></path><path class="link" marker-end="" d="M834,305, 974,492" style="stroke-width: 0.54; stroke-opacity: 1; stroke: rgb(80, 80, 80);"></path><path class="link" marker-end="" d="M834,339, 974,424" style="stroke-width: 0.54; stroke-opacity: 1; stroke: rgb(80, 80, 80);"></path><path class="link" marker-end="" d="M834,339, 974,458" style="stroke-width: 0.54; stroke-opacity: 1; stroke: rgb(80, 80, 80);"></path><path class="link" marker-end="" d="M834,339, 974,492" style="stroke-width: 0.54; stroke-opacity: 1; stroke: rgb(80, 80, 80);"></path><path class="link" marker-end="" d="M834,373, 974,424" style="stroke-width: 0.54; stroke-opacity: 1; stroke: rgb(80, 80, 80);"></path><path class="link" marker-end="" d="M834,373, 974,458" style="stroke-width: 0.54; stroke-opacity: 1; stroke: rgb(80, 80, 80);"></path><path class="link" marker-end="" d="M834,373, 974,492" style="stroke-width: 0.54; stroke-opacity: 1; stroke: rgb(80, 80, 80);"></path><path class="link" marker-end="" d="M834,407, 974,424" style="stroke-width: 0.54; stroke-opacity: 1; stroke: rgb(80, 80, 80);"></path><path class="link" marker-end="" d="M834,407, 974,458" style="stroke-width: 0.54; stroke-opacity: 1; stroke: rgb(80, 80, 80);"></path><path class="link" marker-end="" d="M834,407, 974,492" style="stroke-width: 0.54; stroke-opacity: 1; stroke: rgb(80, 80, 80);"></path><path class="link" marker-end="" d="M834,441, 974,424" style="stroke-width: 0.54; stroke-opacity: 1; stroke: rgb(80, 80, 80);"></path><path class="link" marker-end="" d="M834,441, 974,458" style="stroke-width: 0.54; stroke-opacity: 1; stroke: rgb(80, 80, 80);"></path><path class="link" marker-end="" d="M834,441, 974,492" style="stroke-width: 0.54; stroke-opacity: 1; stroke: rgb(80, 80, 80);"></path><path class="link" marker-end="" d="M834,475, 974,424" style="stroke-width: 0.54; stroke-opacity: 1; stroke: rgb(80, 80, 80);"></path><path class="link" marker-end="" d="M834,475, 974,458" style="stroke-width: 0.54; stroke-opacity: 1; stroke: rgb(80, 80, 80);"></path><path class="link" marker-end="" d="M834,475, 974,492" style="stroke-width: 0.54; stroke-opacity: 1; stroke: rgb(80, 80, 80);"></path><path class="link" marker-end="" d="M834,509, 974,424" style="stroke-width: 0.54; stroke-opacity: 1; stroke: rgb(80, 80, 80);"></path><path class="link" marker-end="" d="M834,509, 974,458" style="stroke-width: 0.54; stroke-opacity: 1; stroke: rgb(80, 80, 80);"></path><path class="link" marker-end="" d="M834,509, 974,492" style="stroke-width: 0.54; stroke-opacity: 1; stroke: rgb(80, 80, 80);"></path><path class="link" marker-end="" d="M834,543, 974,424" style="stroke-width: 0.54; stroke-opacity: 1; stroke: rgb(80, 80, 80);"></path><path class="link" marker-end="" d="M834,543, 974,458" style="stroke-width: 0.54; stroke-opacity: 1; stroke: rgb(80, 80, 80);"></path><path class="link" marker-end="" d="M834,543, 974,492" style="stroke-width: 0.54; stroke-opacity: 1; stroke: rgb(80, 80, 80);"></path><path class="link" marker-end="" d="M834,577, 974,424" style="stroke-width: 0.54; stroke-opacity: 1; stroke: rgb(80, 80, 80);"></path><path class="link" marker-end="" d="M834,577, 974,458" style="stroke-width: 0.54; stroke-opacity: 1; stroke: rgb(80, 80, 80);"></path><path class="link" marker-end="" d="M834,577, 974,492" style="stroke-width: 0.54; stroke-opacity: 1; stroke: rgb(80, 80, 80);"></path><path class="link" marker-end="" d="M834,611, 974,424" style="stroke-width: 0.54; stroke-opacity: 1; stroke: rgb(80, 80, 80);"></path><path class="link" marker-end="" d="M834,611, 974,458" style="stroke-width: 0.54; stroke-opacity: 1; stroke: rgb(80, 80, 80);"></path><path class="link" marker-end="" d="M834,611, 974,492" style="stroke-width: 0.54; stroke-opacity: 1; stroke: rgb(80, 80, 80);"></path><path class="link" marker-end="" d="M834,645, 974,424" style="stroke-width: 0.54; stroke-opacity: 1; stroke: rgb(80, 80, 80);"></path><path class="link" marker-end="" d="M834,645, 974,458" style="stroke-width: 0.54; stroke-opacity: 1; stroke: rgb(80, 80, 80);"></path><path class="link" marker-end="" d="M834,645, 974,492" style="stroke-width: 0.54; stroke-opacity: 1; stroke: rgb(80, 80, 80);"></path><path class="link" marker-end="" d="M974,390, 1114,458" style="stroke-width: 0.54; stroke-opacity: 1; stroke: rgb(80, 80, 80);"></path><path class="link" marker-end="" d="M974,424, 1114,458" style="stroke-width: 0.54; stroke-opacity: 1; stroke: rgb(80, 80, 80);"></path><path class="link" marker-end="" d="M974,458, 1114,458" style="stroke-width: 0.54; stroke-opacity: 1; stroke: rgb(80, 80, 80);"></path><path class="link" marker-end="" d="M974,492, 1114,458" style="stroke-width: 0.54; stroke-opacity: 1; stroke: rgb(80, 80, 80);"></path><path class="link" marker-end="" d="M834,679, 974,424" style="stroke-width: 0.54; stroke-opacity: 1; stroke: rgb(80, 80, 80);"></path><path class="link" marker-end="" d="M834,679, 974,458" style="stroke-width: 0.54; stroke-opacity: 1; stroke: rgb(80, 80, 80);"></path><path class="link" marker-end="" d="M834,679, 974,492" style="stroke-width: 0.54; stroke-opacity: 1; stroke: rgb(80, 80, 80);"></path><path class="link" marker-end="" d="M834,713, 974,424" style="stroke-width: 0.54; stroke-opacity: 1; stroke: rgb(80, 80, 80);"></path><path class="link" marker-end="" d="M834,713, 974,458" style="stroke-width: 0.54; stroke-opacity: 1; stroke: rgb(80, 80, 80);"></path><path class="link" marker-end="" d="M834,713, 974,492" style="stroke-width: 0.54; stroke-opacity: 1; stroke: rgb(80, 80, 80);"></path><path class="link" marker-end="" d="M834,747, 974,424" style="stroke-width: 0.54; stroke-opacity: 1; stroke: rgb(80, 80, 80);"></path><path class="link" marker-end="" d="M834,747, 974,458" style="stroke-width: 0.54; stroke-opacity: 1; stroke: rgb(80, 80, 80);"></path><path class="link" marker-end="" d="M834,747, 974,492" style="stroke-width: 0.54; stroke-opacity: 1; stroke: rgb(80, 80, 80);"></path><path class="link" marker-end="" d="M834,781, 974,424" style="stroke-width: 0.54; stroke-opacity: 1; stroke: rgb(80, 80, 80);"></path><path class="link" marker-end="" d="M834,781, 974,458" style="stroke-width: 0.54; stroke-opacity: 1; stroke: rgb(80, 80, 80);"></path><path class="link" marker-end="" d="M834,781, 974,492" style="stroke-width: 0.54; stroke-opacity: 1; stroke: rgb(80, 80, 80);"></path><path class="link" marker-end="" d="M834,135, 974,390" style="stroke-width: 0.54; stroke-opacity: 1; stroke: rgb(80, 80, 80);"></path><path class="link" marker-end="" d="M834,169, 974,390" style="stroke-width: 0.54; stroke-opacity: 1; stroke: rgb(80, 80, 80);"></path><path class="link" marker-end="" d="M834,203, 974,390" style="stroke-width: 0.54; stroke-opacity: 1; stroke: rgb(80, 80, 80);"></path><path class="link" marker-end="" d="M834,237, 974,390" style="stroke-width: 0.54; stroke-opacity: 1; stroke: rgb(80, 80, 80);"></path><path class="link" marker-end="" d="M834,271, 974,390" style="stroke-width: 0.54; stroke-opacity: 1; stroke: rgb(80, 80, 80);"></path><path class="link" marker-end="" d="M834,305, 974,390" style="stroke-width: 0.54; stroke-opacity: 1; stroke: rgb(80, 80, 80);"></path><path class="link" marker-end="" d="M834,339, 974,390" style="stroke-width: 0.54; stroke-opacity: 1; stroke: rgb(80, 80, 80);"></path><path class="link" marker-end="" d="M834,373, 974,390" style="stroke-width: 0.54; stroke-opacity: 1; stroke: rgb(80, 80, 80);"></path><path class="link" marker-end="" d="M834,407, 974,390" style="stroke-width: 0.54; stroke-opacity: 1; stroke: rgb(80, 80, 80);"></path><path class="link" marker-end="" d="M834,441, 974,390" style="stroke-width: 0.54; stroke-opacity: 1; stroke: rgb(80, 80, 80);"></path><path class="link" marker-end="" d="M834,475, 974,390" style="stroke-width: 0.54; stroke-opacity: 1; stroke: rgb(80, 80, 80);"></path><path class="link" marker-end="" d="M834,509, 974,390" style="stroke-width: 0.54; stroke-opacity: 1; stroke: rgb(80, 80, 80);"></path><path class="link" marker-end="" d="M834,543, 974,390" style="stroke-width: 0.54; stroke-opacity: 1; stroke: rgb(80, 80, 80);"></path><path class="link" marker-end="" d="M834,577, 974,390" style="stroke-width: 0.54; stroke-opacity: 1; stroke: rgb(80, 80, 80);"></path><path class="link" marker-end="" d="M834,611, 974,390" style="stroke-width: 0.54; stroke-opacity: 1; stroke: rgb(80, 80, 80);"></path><path class="link" marker-end="" d="M834,645, 974,390" style="stroke-width: 0.54; stroke-opacity: 1; stroke: rgb(80, 80, 80);"></path><path class="link" marker-end="" d="M834,679, 974,390" style="stroke-width: 0.54; stroke-opacity: 1; stroke: rgb(80, 80, 80);"></path><path class="link" marker-end="" d="M834,713, 974,390" style="stroke-width: 0.54; stroke-opacity: 1; stroke: rgb(80, 80, 80);"></path><path class="link" marker-end="" d="M834,747, 974,390" style="stroke-width: 0.54; stroke-opacity: 1; stroke: rgb(80, 80, 80);"></path><path class="link" marker-end="" d="M834,781, 974,390" style="stroke-width: 0.54; stroke-opacity: 1; stroke: rgb(80, 80, 80);"></path><path class="link" marker-end="" d="M834,135, 974,526" style="stroke-width: 0.54; stroke-opacity: 1; stroke: rgb(80, 80, 80);"></path><path class="link" marker-end="" d="M834,169, 974,526" style="stroke-width: 0.54; stroke-opacity: 1; stroke: rgb(80, 80, 80);"></path><path class="link" marker-end="" d="M834,203, 974,526" style="stroke-width: 0.54; stroke-opacity: 1; stroke: rgb(80, 80, 80);"></path><path class="link" marker-end="" d="M834,237, 974,526" style="stroke-width: 0.54; stroke-opacity: 1; stroke: rgb(80, 80, 80);"></path><path class="link" marker-end="" d="M834,271, 974,526" style="stroke-width: 0.54; stroke-opacity: 1; stroke: rgb(80, 80, 80);"></path><path class="link" marker-end="" d="M834,305, 974,526" style="stroke-width: 0.54; stroke-opacity: 1; stroke: rgb(80, 80, 80);"></path><path class="link" marker-end="" d="M834,339, 974,526" style="stroke-width: 0.54; stroke-opacity: 1; stroke: rgb(80, 80, 80);"></path><path class="link" marker-end="" d="M834,373, 974,526" style="stroke-width: 0.54; stroke-opacity: 1; stroke: rgb(80, 80, 80);"></path><path class="link" marker-end="" d="M834,407, 974,526" style="stroke-width: 0.54; stroke-opacity: 1; stroke: rgb(80, 80, 80);"></path><path class="link" marker-end="" d="M834,441, 974,526" style="stroke-width: 0.54; stroke-opacity: 1; stroke: rgb(80, 80, 80);"></path><path class="link" marker-end="" d="M834,475, 974,526" style="stroke-width: 0.54; stroke-opacity: 1; stroke: rgb(80, 80, 80);"></path><path class="link" marker-end="" d="M834,509, 974,526" style="stroke-width: 0.54; stroke-opacity: 1; stroke: rgb(80, 80, 80);"></path><path class="link" marker-end="" d="M834,543, 974,526" style="stroke-width: 0.54; stroke-opacity: 1; stroke: rgb(80, 80, 80);"></path><path class="link" marker-end="" d="M834,577, 974,526" style="stroke-width: 0.54; stroke-opacity: 1; stroke: rgb(80, 80, 80);"></path><path class="link" marker-end="" d="M834,611, 974,526" style="stroke-width: 0.54; stroke-opacity: 1; stroke: rgb(80, 80, 80);"></path><path class="link" marker-end="" d="M834,645, 974,526" style="stroke-width: 0.54; stroke-opacity: 1; stroke: rgb(80, 80, 80);"></path><path class="link" marker-end="" d="M834,679, 974,526" style="stroke-width: 0.54; stroke-opacity: 1; stroke: rgb(80, 80, 80);"></path><path class="link" marker-end="" d="M834,713, 974,526" style="stroke-width: 0.54; stroke-opacity: 1; stroke: rgb(80, 80, 80);"></path><path class="link" marker-end="" d="M834,747, 974,526" style="stroke-width: 0.54; stroke-opacity: 1; stroke: rgb(80, 80, 80);"></path><path class="link" marker-end="" d="M834,781, 974,526" style="stroke-width: 0.54; stroke-opacity: 1; stroke: rgb(80, 80, 80);"></path><path class="link" marker-end="" d="M974,526, 1114,458" style="stroke-width: 0.54; stroke-opacity: 1; stroke: rgb(80, 80, 80);"></path><circle r="7" class="node" id="0_0" cx="834" cy="135" style="fill: rgb(255, 255, 255); stroke: rgb(51, 51, 51);"></circle><circle r="7" class="node" id="0_1" cx="834" cy="169" style="fill: rgb(255, 255, 255); stroke: rgb(51, 51, 51);"></circle><circle r="7" class="node" id="0_2" cx="834" cy="203" style="fill: rgb(255, 255, 255); stroke: rgb(51, 51, 51);"></circle><circle r="7" class="node" id="0_3" cx="834" cy="237" style="fill: rgb(255, 255, 255); stroke: rgb(51, 51, 51);"></circle><circle r="7" class="node" id="0_4" cx="834" cy="271" style="fill: rgb(255, 255, 255); stroke: rgb(51, 51, 51);"></circle><circle r="7" class="node" id="0_5" cx="834" cy="305" style="fill: rgb(255, 255, 255); stroke: rgb(51, 51, 51);"></circle><circle r="7" class="node" id="0_6" cx="834" cy="339" style="fill: rgb(255, 255, 255); stroke: rgb(51, 51, 51);"></circle><circle r="7" class="node" id="0_7" cx="834" cy="373" style="fill: rgb(255, 255, 255); stroke: rgb(51, 51, 51);"></circle><circle r="7" class="node" id="0_8" cx="834" cy="407" style="fill: rgb(255, 255, 255); stroke: rgb(51, 51, 51);"></circle><circle r="7" class="node" id="0_9" cx="834" cy="441" style="fill: rgb(255, 255, 255); stroke: rgb(51, 51, 51);"></circle><circle r="7" class="node" id="0_10" cx="834" cy="475" style="fill: rgb(255, 255, 255); stroke: rgb(51, 51, 51);"></circle><circle r="7" class="node" id="0_11" cx="834" cy="509" style="fill: rgb(255, 255, 255); stroke: rgb(51, 51, 51);"></circle><circle r="7" class="node" id="0_12" cx="834" cy="543" style="fill: rgb(255, 255, 255); stroke: rgb(51, 51, 51);"></circle><circle r="7" class="node" id="0_13" cx="834" cy="577" style="fill: rgb(255, 255, 255); stroke: rgb(51, 51, 51);"></circle><circle r="7" class="node" id="0_14" cx="834" cy="611" style="fill: rgb(255, 255, 255); stroke: rgb(51, 51, 51);"></circle><circle r="7" class="node" id="0_15" cx="834" cy="645" style="fill: rgb(255, 255, 255); stroke: rgb(51, 51, 51);"></circle><circle r="7" class="node" id="0_16" cx="834" cy="679" style="fill: rgb(255, 255, 255); stroke: rgb(51, 51, 51);"></circle><circle r="7" class="node" id="0_17" cx="834" cy="713" style="fill: rgb(255, 255, 255); stroke: rgb(51, 51, 51);"></circle><circle r="7" class="node" id="0_18" cx="834" cy="747" style="fill: rgb(255, 255, 255); stroke: rgb(51, 51, 51);"></circle><circle r="7" class="node" id="0_19" cx="834" cy="781" style="fill: rgb(255, 255, 255); stroke: rgb(51, 51, 51);"></circle><circle r="7" class="node" id="1_0" cx="974" cy="390" style="fill: rgb(255, 255, 255); stroke: rgb(51, 51, 51);"></circle><circle r="7" class="node" id="1_1" cx="974" cy="424" style="fill: rgb(255, 255, 255); stroke: rgb(51, 51, 51);"></circle><circle r="7" class="node" id="1_2" cx="974" cy="458" style="fill: rgb(255, 255, 255); stroke: rgb(51, 51, 51);"></circle><circle r="7" class="node" id="1_3" cx="974" cy="492" style="fill: rgb(255, 255, 255); stroke: rgb(51, 51, 51);"></circle><circle r="7" class="node" id="1_4" cx="974" cy="526" style="fill: rgb(255, 255, 255); stroke: rgb(51, 51, 51);"></circle><circle r="7" class="node" id="2_0" cx="1114" cy="458" style="fill: rgb(255, 255, 255); stroke: rgb(51, 51, 51);"></circle><text class="text" dy=".35em" x="799" y="815" style="font-size: 12px;"></text><text class="text" dy=".35em" x="939" y="815" style="font-size: 12px;"></text><text class="text" dy=".35em" x="1079" y="815" style="font-size: 12px;"></text></g><defs><marker id="arrow" viewBox="0 -5 10 10" markerWidth="7" markerHeight="7" orient="auto" refX="31.599999999999998"><path d="M0,-5L10,0L0,5" style="stroke: rgb(80, 80, 80); fill: none;"></path></marker></defs></svg>